{
    "asset" : {
        "generator" : "Khronos glTF Blender I/O v1.4.40",
        "version" : "2.0"
    },
    "scene" : 0,
    "scenes" : [
        {
            "name" : "Scene",
            "nodes" : [
                0
            ]
        }
    ],
    "nodes" : [
        {
            "mesh" : 0,
            "name" : "Plane",
            "scale" : [
                170.99742126464844,
                28.506324768066406,
                93.93511962890625
            ],
            "translation" : [
                0,
                0,
                25.87725067138672
            ]
        }
    ],
    "materials" : [
        {
            "doubleSided" : true,
            "name" : "Material.001",
            "pbrMetallicRoughness" : {
                "baseColorFactor" : [
                    0.800000011920929,
                    0.800000011920929,
                    0.800000011920929,
                    1
                ],
                "metallicFactor" : 0,
                "roughnessFactor" : 0.4000000059604645
            }
        }
    ],
    "meshes" : [
        {
            "name" : "Plane",
            "primitives" : [
                {
                    "attributes" : {
                        "POSITION" : 0,
                        "NORMAL" : 1,
                        "TEXCOORD_0" : 2
                    },
                    "indices" : 3,
                    "material" : 0
                }
            ]
        }
    ],
    "accessors" : [
        {
            "bufferView" : 0,
            "componentType" : 5126,
            "count" : 1544,
            "max" : [
                1,
                2.486605405807495,
                1.2431554794311523
            ],
            "min" : [
                -1,
                -0.11894626915454865,
                -1.5565236806869507
            ],
            "type" : "VEC3"
        },
        {
            "bufferView" : 1,
            "componentType" : 5126,
            "count" : 1544,
            "type" : "VEC3"
        },
        {
            "bufferView" : 2,
            "componentType" : 5126,
            "count" : 1544,
            "type" : "VEC2"
        },
        {
            "bufferView" : 3,
            "componentType" : 5123,
            "count" : 2856,
            "type" : "SCALAR"
        }
    ],
    "bufferViews" : [
        {
            "buffer" : 0,
            "byteLength" : 18528,
            "byteOffset" : 0
        },
        {
            "buffer" : 0,
            "byteLength" : 18528,
            "byteOffset" : 18528
        },
        {
            "buffer" : 0,
            "byteLength" : 12352,
            "byteOffset" : 37056
        },
        {
            "buffer" : 0,
            "byteLength" : 5712,
            "byteOffset" : 49408
        }
    ],
    "buffers" : [
        {
            "byteLength" : 55120,
            "uri" : "data:application/octet-stream;base64,"
        }
    ]
}
