{
    "asset" : {
        "generator" : "Khronos glTF Blender I/O v1.3.48",
        "version" : "2.0"
    },
    "scene" : 0,
    "scenes" : [
        {
            "name" : "Scene",
            "nodes" : [
                0
            ]
        }
    ],
    "nodes" : [
        {
            "mesh" : 0,
            "name" : "Cube.028",
            "rotation" : [
                0,
                -1,
                0,
                4.887620548288396e-07
            ],
            "scale" : [
                19.764310836791992,
                1,
                9.723700523376465
            ],
            "translation" : [
                -69.92788696289062,
                -8.484525680541992,
                10.281265258789062
            ]
        }
    ],
    "meshes" : [
        {
            "name" : "Cube.033",
            "primitives" : [
                {
                    "attributes" : {
                        "POSITION" : 0,
                        "NORMAL" : 1,
                        "TEXCOORD_0" : 2
                    },
                    "indices" : 3
                }
            ]
        }
    ],
    "accessors" : [
        {
            "bufferView" : 0,
            "componentType" : 5126,
            "count" : 4292,
            "max" : [
                1.551581859588623,
                15.495821952819824,
                5.432923316955566
            ],
            "min" : [
                -11.331547737121582,
                -1.2741308212280273,
                -7.5742082595825195
            ],
            "type" : "VEC3"
        },
        {
            "bufferView" : 1,
            "componentType" : 5126,
            "count" : 4292,
            "type" : "VEC3"
        },
        {
            "bufferView" : 2,
            "componentType" : 5126,
            "count" : 4292,
            "type" : "VEC2"
        },
        {
            "bufferView" : 3,
            "componentType" : 5123,
            "count" : 7278,
            "type" : "SCALAR"
        }
    ],
    "bufferViews" : [
        {
            "buffer" : 0,
            "byteLength" : 51504,
            "byteOffset" : 0
        },
        {
            "buffer" : 0,
            "byteLength" : 51504,
            "byteOffset" : 51504
        },
        {
            "buffer" : 0,
            "byteLength" : 34336,
            "byteOffset" : 103008
        },
        {
            "buffer" : 0,
            "byteLength" : 14556,
            "byteOffset" : 137344
        }
    ],
    "buffers" : [
        {
            "byteLength" : 151900,
            "uri" : "data:application/octet-stream;base64,"
        }
    ]
}
