{
    "asset" : {
        "generator" : "Khronos glTF Blender I/O v1.4.40",
        "version" : "2.0"
    },
    "scene" : 0,
    "scenes" : [
        {
            "name" : "Scene",
            "nodes" : [
                0
            ]
        }
    ],
    "nodes" : [
        {
            "mesh" : 0,
            "name" : "Cube",
            "scale" : [
                61.21023941040039,
                0.095223568379879,
                -105.86813354492188
            ],
            "translation" : [
                10.440082550048828,
                29.204421997070312,
                3.7744216918945312
            ]
        }
    ],
    "meshes" : [
        {
            "name" : "Cube.001",
            "primitives" : [
                {
                    "attributes" : {
                        "POSITION" : 0,
                        "NORMAL" : 1,
                        "TEXCOORD_0" : 2
                    },
                    "indices" : 3
                }
            ]
        }
    ],
    "accessors" : [
        {
            "bufferView" : 0,
            "componentType" : 5126,
            "count" : 6201,
            "max" : [
                1.230104923248291,
                208.9326171875,
                1
            ],
            "min" : [
                -1.327937126159668,
                -4.851459503173828,
                -1
            ],
            "type" : "VEC3"
        },
        {
            "bufferView" : 1,
            "componentType" : 5126,
            "count" : 6201,
            "type" : "VEC3"
        },
        {
            "bufferView" : 2,
            "componentType" : 5126,
            "count" : 6201,
            "type" : "VEC2"
        },
        {
            "bufferView" : 3,
            "componentType" : 5123,
            "count" : 10743,
            "type" : "SCALAR"
        }
    ],
    "bufferViews" : [
        {
            "buffer" : 0,
            "byteLength" : 74412,
            "byteOffset" : 0
        },
        {
            "buffer" : 0,
            "byteLength" : 74412,
            "byteOffset" : 74412
        },
        {
            "buffer" : 0,
            "byteLength" : 49608,
            "byteOffset" : 148824
        },
        {
            "buffer" : 0,
            "byteLength" : 21486,
            "byteOffset" : 198432
        }
    ],
    "buffers" : [
        {
            "byteLength" : 219920,
            "uri" : "data:application/octet-stream;base64,"
        }
    ]
}
