{
    "asset" : {
        "generator" : "Khronos glTF Blender I/O v1.4.40",
        "version" : "2.0"
    },
    "scene" : 0,
    "scenes" : [
        {
            "name" : "Scene",
            "nodes" : [
                4,
                5
            ]
        }
    ],
    "nodes" : [
        {
            "name" : "Trigger",
            "rotation" : [
                -1.979596220280655e-07,
                3.25561444469713e-08,
                -0.9106784462928772,
                0.4131160378456116
            ],
            "scale" : [
                0.9999998211860657,
                0.9999999403953552,
                1
            ],
            "translation" : [
                0.523047149181366,
                1.5179505348205566,
                1.1342519457002709e-07
            ]
        },
        {
            "name" : "Bolt",
            "rotation" : [
                -2.302264334730353e-08,
                4.564721223232482e-08,
                -0.5802502036094666,
                0.8144382834434509
            ],
            "translation" : [
                0.260235071182251,
                1.783408522605896,
                7.127572132503701e-08
            ]
        },
        {
            "name" : "Mag",
            "rotation" : [
                -2.916488881510304e-07,
                8.864804357244793e-08,
                -0.9887158274650574,
                0.14980342984199524
            ],
            "scale" : [
                0.9999979138374329,
                0.9999999403953552,
                1
            ],
            "translation" : [
                0.07019444555044174,
                -0.1310410350561142,
                8.07021507398531e-08
            ]
        },
        {
            "children" : [
                0,
                1,
                2
            ],
            "name" : "P99"
        },
        {
            "mesh" : 0,
            "name" : "P99",
            "skin" : 0
        },
        {
            "children" : [
                3
            ],
            "name" : "P99_Armature",
            "rotation" : [
                0,
                0,
                -0.18363292515277863,
                0.9829949140548706
            ],
            "scale" : [
                2.7890877723693848,
                2.7890877723693848,
                2.7890877723693848
            ],
            "translation" : [
                -2.4614145755767822,
                -2.4469714164733887,
                -1.1725481748580933
            ]
        }
    ],
    "materials" : [
        {
            "doubleSided" : true,
            "name" : "LightGray",
            "pbrMetallicRoughness" : {
                "baseColorFactor" : [
                    0.14731408655643463,
                    0.14731408655643463,
                    0.14731408655643463,
                    1
                ],
                "metallicFactor" : 0,
                "roughnessFactor" : 0.5
            }
        },
        {
            "doubleSided" : true,
            "name" : "Black",
            "pbrMetallicRoughness" : {
                "baseColorFactor" : [
                    0.013410553336143494,
                    0.013410553336143494,
                    0.013410553336143494,
                    1
                ],
                "metallicFactor" : 0,
                "roughnessFactor" : 0.5
            }
        }
    ],
    "meshes" : [
        {
            "name" : "Plane",
            "primitives" : [
                {
                    "attributes" : {
                        "POSITION" : 0,
                        "NORMAL" : 1,
                        "TEXCOORD_0" : 2,
                        "TEXCOORD_1" : 3,
                        "TEXCOORD_2" : 4,
                        "TEXCOORD_3" : 5,
                        "JOINTS_0" : 6,
                        "WEIGHTS_0" : 7
                    },
                    "indices" : 8,
                    "material" : 0
                },
                {
                    "attributes" : {
                        "POSITION" : 9,
                        "NORMAL" : 10,
                        "TEXCOORD_0" : 11,
                        "TEXCOORD_1" : 12,
                        "TEXCOORD_2" : 13,
                        "TEXCOORD_3" : 14,
                        "JOINTS_0" : 15,
                        "WEIGHTS_0" : 16
                    },
                    "indices" : 17,
                    "material" : 1
                }
            ]
        }
    ],
    "skins" : [
        {
            "inverseBindMatrices" : 18,
            "joints" : [
                3,
                0,
                1,
                2
            ],
            "name" : "P99_Armature"
        }
    ],
    "accessors" : [
        {
            "bufferView" : 0,
            "componentType" : 5126,
            "count" : 921,
            "max" : [
                5.419086933135986,
                2.880741834640503,
                -0.3864806294441223
            ],
            "min" : [
                -4.073334217071533,
                1.0293493270874023,
                -1.9762262105941772
            ],
            "type" : "VEC3"
        },
        {
            "bufferView" : 1,
            "componentType" : 5126,
            "count" : 921,
            "type" : "VEC3"
        },
        {
            "bufferView" : 2,
            "componentType" : 5126,
            "count" : 921,
            "type" : "VEC2"
        },
        {
            "bufferView" : 3,
            "componentType" : 5126,
            "count" : 921,
            "type" : "VEC2"
        },
        {
            "bufferView" : 4,
            "componentType" : 5126,
            "count" : 921,
            "type" : "VEC2"
        },
        {
            "bufferView" : 5,
            "componentType" : 5126,
            "count" : 921,
            "type" : "VEC2"
        },
        {
            "bufferView" : 6,
            "componentType" : 5121,
            "count" : 921,
            "type" : "VEC4"
        },
        {
            "bufferView" : 7,
            "componentType" : 5126,
            "count" : 921,
            "type" : "VEC4"
        },
        {
            "bufferView" : 8,
            "componentType" : 5123,
            "count" : 3303,
            "type" : "SCALAR"
        },
        {
            "bufferView" : 9,
            "componentType" : 5126,
            "count" : 4187,
            "max" : [
                5.452581882476807,
                3.1337709426879883,
                -0.39141446352005005
            ],
            "min" : [
                -4.0692548751831055,
                -4.196824073791504,
                -1.9667052030563354
            ],
            "type" : "VEC3"
        },
        {
            "bufferView" : 10,
            "componentType" : 5126,
            "count" : 4187,
            "type" : "VEC3"
        },
        {
            "bufferView" : 11,
            "componentType" : 5126,
            "count" : 4187,
            "type" : "VEC2"
        },
        {
            "bufferView" : 12,
            "componentType" : 5126,
            "count" : 4187,
            "type" : "VEC2"
        },
        {
            "bufferView" : 13,
            "componentType" : 5126,
            "count" : 4187,
            "type" : "VEC2"
        },
        {
            "bufferView" : 14,
            "componentType" : 5126,
            "count" : 4187,
            "type" : "VEC2"
        },
        {
            "bufferView" : 15,
            "componentType" : 5121,
            "count" : 4187,
            "type" : "VEC4"
        },
        {
            "bufferView" : 16,
            "componentType" : 5126,
            "count" : 4187,
            "type" : "VEC4"
        },
        {
            "bufferView" : 17,
            "componentType" : 5123,
            "count" : 14406,
            "type" : "SCALAR"
        },
        {
            "bufferView" : 18,
            "componentType" : 5126,
            "count" : 4,
            "type" : "MAT4"
        }
    ],
    "bufferViews" : [
        {
            "buffer" : 0,
            "byteLength" : 11052,
            "byteOffset" : 0
        },
        {
            "buffer" : 0,
            "byteLength" : 11052,
            "byteOffset" : 11052
        },
        {
            "buffer" : 0,
            "byteLength" : 7368,
            "byteOffset" : 22104
        },
        {
            "buffer" : 0,
            "byteLength" : 7368,
            "byteOffset" : 29472
        },
        {
            "buffer" : 0,
            "byteLength" : 7368,
            "byteOffset" : 36840
        },
        {
            "buffer" : 0,
            "byteLength" : 7368,
            "byteOffset" : 44208
        },
        {
            "buffer" : 0,
            "byteLength" : 3684,
            "byteOffset" : 51576
        },
        {
            "buffer" : 0,
            "byteLength" : 14736,
            "byteOffset" : 55260
        },
        {
            "buffer" : 0,
            "byteLength" : 6606,
            "byteOffset" : 69996
        },
        {
            "buffer" : 0,
            "byteLength" : 50244,
            "byteOffset" : 76604
        },
        {
            "buffer" : 0,
            "byteLength" : 50244,
            "byteOffset" : 126848
        },
        {
            "buffer" : 0,
            "byteLength" : 33496,
            "byteOffset" : 177092
        },
        {
            "buffer" : 0,
            "byteLength" : 33496,
            "byteOffset" : 210588
        },
        {
            "buffer" : 0,
            "byteLength" : 33496,
            "byteOffset" : 244084
        },
        {
            "buffer" : 0,
            "byteLength" : 33496,
            "byteOffset" : 277580
        },
        {
            "buffer" : 0,
            "byteLength" : 16748,
            "byteOffset" : 311076
        },
        {
            "buffer" : 0,
            "byteLength" : 66992,
            "byteOffset" : 327824
        },
        {
            "buffer" : 0,
            "byteLength" : 28812,
            "byteOffset" : 394816
        },
        {
            "buffer" : 0,
            "byteLength" : 256,
            "byteOffset" : 423628
        }
    ],
    "buffers" : [
        {
            "byteLength" : 423884,
            "uri" : "data:application/octet-stream;base64,"
        }
    ]
}
