{
    "asset" : {
        "generator" : "Khronos glTF Blender I/O v1.4.40",
        "version" : "2.0"
    },
    "scene" : 0,
    "scenes" : [
        {
            "name" : "Scene",
            "nodes" : [
                0
            ]
        }
    ],
    "nodes" : [
        {
            "mesh" : 0,
            "name" : "Cube.034",
            "rotation" : [
                0,
                1,
                0,
                -1.6292068494294654e-07
            ],
            "scale" : [
                0.6949406266212463,
                1,
                1
            ],
            "translation" : [
                42.68439483642578,
                0.9792351722717285,
                9.929813385009766
            ]
        }
    ],
    "materials" : [
        {
            "doubleSided" : true,
            "name" : "Material.001",
            "pbrMetallicRoughness" : {
                "baseColorFactor" : [
                    0.800000011920929,
                    0.800000011920929,
                    0.800000011920929,
                    1
                ],
                "metallicFactor" : 0,
                "roughnessFactor" : 0.4000000059604645
            }
        }
    ],
    "meshes" : [
        {
            "name" : "Cube.041",
            "primitives" : [
                {
                    "attributes" : {
                        "POSITION" : 0,
                        "NORMAL" : 1,
                        "TEXCOORD_0" : 2
                    },
                    "indices" : 3,
                    "material" : 0
                }
            ]
        }
    ],
    "accessors" : [
        {
            "bufferView" : 0,
            "componentType" : 5126,
            "count" : 3066,
            "max" : [
                144.92694091796875,
                19.352039337158203,
                69.79327392578125
            ],
            "min" : [
                -22.552278518676758,
                -7.01898717880249,
                -49.933616638183594
            ],
            "type" : "VEC3"
        },
        {
            "bufferView" : 1,
            "componentType" : 5126,
            "count" : 3066,
            "type" : "VEC3"
        },
        {
            "bufferView" : 2,
            "componentType" : 5126,
            "count" : 3066,
            "type" : "VEC2"
        },
        {
            "bufferView" : 3,
            "componentType" : 5123,
            "count" : 5220,
            "type" : "SCALAR"
        }
    ],
    "bufferViews" : [
        {
            "buffer" : 0,
            "byteLength" : 36792,
            "byteOffset" : 0
        },
        {
            "buffer" : 0,
            "byteLength" : 36792,
            "byteOffset" : 36792
        },
        {
            "buffer" : 0,
            "byteLength" : 24528,
            "byteOffset" : 73584
        },
        {
            "buffer" : 0,
            "byteLength" : 10440,
            "byteOffset" : 98112
        }
    ],
    "buffers" : [
        {
            "byteLength" : 108552,
            "uri" : "data:application/octet-stream;base64,"
        }
    ]
}
