{
    "asset" : {
        "generator" : "Khronos glTF Blender I/O v1.4.40",
        "version" : "2.0"
    },
    "scene" : 0,
    "scenes" : [
        {
            "name" : "Scene",
            "nodes" : [
                0
            ]
        }
    ],
    "nodes" : [
        {
            "mesh" : 0,
            "name" : "Cube.046",
            "scale" : [
                4.195093154907227,
                4.175621509552002,
                5.079100608825684
            ],
            "translation" : [
                32.729278564453125,
                4.638944149017334,
                -265.04803466796875
            ]
        }
    ],
    "materials" : [
        {
            "doubleSided" : true,
            "name" : "Material.001",
            "pbrMetallicRoughness" : {
                "baseColorFactor" : [
                    0.800000011920929,
                    0.800000011920929,
                    0.800000011920929,
                    1
                ],
                "metallicFactor" : 0,
                "roughnessFactor" : 0.4000000059604645
            }
        }
    ],
    "meshes" : [
        {
            "name" : "Cube.047",
            "primitives" : [
                {
                    "attributes" : {
                        "POSITION" : 0,
                        "NORMAL" : 1,
                        "TEXCOORD_0" : 2
                    },
                    "indices" : 3,
                    "material" : 0
                }
            ]
        }
    ],
    "accessors" : [
        {
            "bufferView" : 0,
            "componentType" : 5126,
            "count" : 2200,
            "max" : [
                27.49268341064453,
                9.002578735351562,
                58.914588928222656
            ],
            "min" : [
                -42.702430725097656,
                -1.1714999675750732,
                -13.624695777893066
            ],
            "type" : "VEC3"
        },
        {
            "bufferView" : 1,
            "componentType" : 5126,
            "count" : 2200,
            "type" : "VEC3"
        },
        {
            "bufferView" : 2,
            "componentType" : 5126,
            "count" : 2200,
            "type" : "VEC2"
        },
        {
            "bufferView" : 3,
            "componentType" : 5123,
            "count" : 3702,
            "type" : "SCALAR"
        }
    ],
    "bufferViews" : [
        {
            "buffer" : 0,
            "byteLength" : 26400,
            "byteOffset" : 0
        },
        {
            "buffer" : 0,
            "byteLength" : 26400,
            "byteOffset" : 26400
        },
        {
            "buffer" : 0,
            "byteLength" : 17600,
            "byteOffset" : 52800
        },
        {
            "buffer" : 0,
            "byteLength" : 7404,
            "byteOffset" : 70400
        }
    ],
    "buffers" : [
        {
            "byteLength" : 77804,
            "uri" : "data:application/octet-stream;base64,"
        }
    ]
}
