{
    "asset" : {
        "generator" : "Khronos glTF Blender I/O v1.4.40",
        "version" : "2.0"
    },
    "scene" : 0,
    "scenes" : [
        {
            "name" : "Scene",
            "nodes" : [
                6,
                7
            ]
        }
    ],
    "nodes" : [
        {
            "name" : "Mag",
            "rotation" : [
                1.938720117777848e-08,
                1.2221529743783321e-07,
                -0.8022252917289734,
                0.5970214009284973
            ],
            "translation" : [
                0.1785140335559845,
                0.5066994428634644,
                1.1622992701632029e-07
            ]
        },
        {
            "name" : "Trigger",
            "rotation" : [
                6.587453782458397e-08,
                1.7256421358524676e-07,
                -0.5611427426338196,
                0.8277190327644348
            ],
            "translation" : [
                -0.02721509523689747,
                0.982918381690979,
                1.0280082562985626e-07
            ]
        },
        {
            "name" : "Barrel",
            "rotation" : [
                2.7802574464885765e-08,
                2.1635916880313744e-07,
                -0.0008684019558131695,
                0.9999996423721313
            ],
            "translation" : [
                -0.18813681602478027,
                0.917255699634552,
                5.177414053036955e-08
            ]
        },
        {
            "name" : "Bolt",
            "rotation" : [
                2.780404528834879e-08,
                2.1806005179314525e-07,
                -0.0008684001513756812,
                0.9999996423721313
            ],
            "scale" : [
                1,
                0.9999999403953552,
                1
            ],
            "translation" : [
                -0.3436868190765381,
                1.0149375200271606,
                3.504658607766942e-08
            ]
        },
        {
            "name" : "RecoilSwitch",
            "rotation" : [
                -2.539055401484802e-07,
                -1.2696120599287042e-08,
                0.947710394859314,
                0.3191317319869995
            ],
            "scale" : [
                1,
                0.9999999403953552,
                1
            ],
            "translation" : [
                -0.14502453804016113,
                0.227414071559906,
                -5.6372815748773064e-08
            ]
        },
        {
            "children" : [
                0,
                1,
                2,
                3,
                4
            ],
            "name" : "USP"
        },
        {
            "mesh" : 0,
            "name" : "USP",
            "skin" : 0
        },
        {
            "children" : [
                5
            ],
            "name" : "USP-Armature",
            "rotation" : [
                0,
                0,
                -0.7043411135673523,
                0.7098616361618042
            ],
            "scale" : [
                0.4198547601699829,
                0.4198547601699829,
                0.4198547601699829
            ],
            "translation" : [
                -0.18202024698257446,
                -0.05777740478515625,
                0.004135972820222378
            ]
        }
    ],
    "materials" : [
        {
            "doubleSided" : true,
            "name" : "Gray.001",
            "pbrMetallicRoughness" : {
                "baseColorFactor" : [
                    0.08001197129487991,
                    0.08001197129487991,
                    0.08001197129487991,
                    1
                ],
                "metallicFactor" : 0,
                "roughnessFactor" : 0.5
            }
        },
        {
            "doubleSided" : true,
            "name" : "Black.004",
            "pbrMetallicRoughness" : {
                "baseColorFactor" : [
                    0.021979402750730515,
                    0.021979402750730515,
                    0.021979402750730515,
                    1
                ],
                "metallicFactor" : 0,
                "roughnessFactor" : 0.5
            }
        },
        {
            "doubleSided" : true,
            "name" : "Black.005",
            "pbrMetallicRoughness" : {
                "baseColorFactor" : [
                    0.015995018184185028,
                    0.015995018184185028,
                    0.015995018184185028,
                    1
                ],
                "metallicFactor" : 0,
                "roughnessFactor" : 0.5
            }
        },
        {
            "doubleSided" : true,
            "name" : "Black.001",
            "pbrMetallicRoughness" : {
                "baseColorFactor" : [
                    0.011087734252214432,
                    0.011087734252214432,
                    0.011087734252214432,
                    1
                ],
                "metallicFactor" : 0,
                "roughnessFactor" : 0.5
            }
        },
        {
            "doubleSided" : true,
            "name" : "Black",
            "pbrMetallicRoughness" : {
                "baseColorFactor" : [
                    0.011087734252214432,
                    0.011087734252214432,
                    0.011087734252214432,
                    1
                ],
                "metallicFactor" : 0,
                "roughnessFactor" : 0.5
            }
        },
        {
            "doubleSided" : true,
            "name" : "Black.002",
            "pbrMetallicRoughness" : {
                "baseColorFactor" : [
                    0.011087734252214432,
                    0.011087734252214432,
                    0.011087734252214432,
                    1
                ],
                "metallicFactor" : 0,
                "roughnessFactor" : 0.5
            }
        }
    ],
    "meshes" : [
        {
            "name" : "Plane.002",
            "primitives" : [
                {
                    "attributes" : {
                        "POSITION" : 0,
                        "NORMAL" : 1,
                        "TEXCOORD_0" : 2,
                        "JOINTS_0" : 3,
                        "WEIGHTS_0" : 4
                    },
                    "indices" : 5,
                    "material" : 0
                },
                {
                    "attributes" : {
                        "POSITION" : 6,
                        "NORMAL" : 7,
                        "TEXCOORD_0" : 8,
                        "JOINTS_0" : 9,
                        "WEIGHTS_0" : 10
                    },
                    "indices" : 11,
                    "material" : 1
                },
                {
                    "attributes" : {
                        "POSITION" : 12,
                        "NORMAL" : 13,
                        "TEXCOORD_0" : 14,
                        "JOINTS_0" : 15,
                        "WEIGHTS_0" : 16
                    },
                    "indices" : 17,
                    "material" : 2
                },
                {
                    "attributes" : {
                        "POSITION" : 18,
                        "NORMAL" : 19,
                        "TEXCOORD_0" : 20,
                        "JOINTS_0" : 21,
                        "WEIGHTS_0" : 22
                    },
                    "indices" : 23,
                    "material" : 3
                },
                {
                    "attributes" : {
                        "POSITION" : 24,
                        "NORMAL" : 25,
                        "TEXCOORD_0" : 26,
                        "JOINTS_0" : 27,
                        "WEIGHTS_0" : 28
                    },
                    "indices" : 29,
                    "material" : 4
                },
                {
                    "attributes" : {
                        "POSITION" : 30,
                        "NORMAL" : 31,
                        "TEXCOORD_0" : 32,
                        "JOINTS_0" : 33,
                        "WEIGHTS_0" : 34
                    },
                    "indices" : 35,
                    "material" : 5
                }
            ]
        }
    ],
    "skins" : [
        {
            "inverseBindMatrices" : 36,
            "joints" : [
                5,
                0,
                1,
                2,
                3,
                4
            ],
            "name" : "USP-Armature"
        }
    ],
    "accessors" : [
        {
            "bufferView" : 0,
            "componentType" : 5126,
            "count" : 2715,
            "max" : [
                0.7140289545059204,
                0.11272382736206055,
                0.0717458724975586
            ],
            "min" : [
                -0.14775599539279938,
                -0.04547775909304619,
                -0.0721103847026825
            ],
            "type" : "VEC3"
        },
        {
            "bufferView" : 1,
            "componentType" : 5126,
            "count" : 2715,
            "type" : "VEC3"
        },
        {
            "bufferView" : 2,
            "componentType" : 5126,
            "count" : 2715,
            "type" : "VEC2"
        },
        {
            "bufferView" : 3,
            "componentType" : 5121,
            "count" : 2715,
            "type" : "VEC4"
        },
        {
            "bufferView" : 4,
            "componentType" : 5126,
            "count" : 2715,
            "type" : "VEC4"
        },
        {
            "bufferView" : 5,
            "componentType" : 5123,
            "count" : 8286,
            "type" : "SCALAR"
        },
        {
            "bufferView" : 6,
            "componentType" : 5126,
            "count" : 112,
            "max" : [
                -0.03043522499501705,
                0.1358441710472107,
                0.04224177822470665
            ],
            "min" : [
                -0.07913600653409958,
                0.09864244610071182,
                -0.042217887938022614
            ],
            "type" : "VEC3"
        },
        {
            "bufferView" : 7,
            "componentType" : 5126,
            "count" : 112,
            "type" : "VEC3"
        },
        {
            "bufferView" : 8,
            "componentType" : 5126,
            "count" : 112,
            "type" : "VEC2"
        },
        {
            "bufferView" : 9,
            "componentType" : 5121,
            "count" : 112,
            "type" : "VEC4"
        },
        {
            "bufferView" : 10,
            "componentType" : 5126,
            "count" : 112,
            "type" : "VEC4"
        },
        {
            "bufferView" : 11,
            "componentType" : 5123,
            "count" : 276,
            "type" : "SCALAR"
        },
        {
            "bufferView" : 12,
            "componentType" : 5126,
            "count" : 170,
            "max" : [
                0.676520586013794,
                0.13573262095451355,
                0.03602532297372818
            ],
            "min" : [
                -0.16585510969161987,
                -0.0010754931718111038,
                -0.035862650722265244
            ],
            "type" : "VEC3"
        },
        {
            "bufferView" : 13,
            "componentType" : 5126,
            "count" : 170,
            "type" : "VEC3"
        },
        {
            "bufferView" : 14,
            "componentType" : 5126,
            "count" : 170,
            "type" : "VEC2"
        },
        {
            "bufferView" : 15,
            "componentType" : 5121,
            "count" : 170,
            "type" : "VEC4"
        },
        {
            "bufferView" : 16,
            "componentType" : 5126,
            "count" : 170,
            "type" : "VEC4"
        },
        {
            "bufferView" : 17,
            "componentType" : 5123,
            "count" : 354,
            "type" : "SCALAR"
        },
        {
            "bufferView" : 18,
            "componentType" : 5126,
            "count" : 2611,
            "max" : [
                0.6987274289131165,
                0.03708961606025696,
                0.06606318801641464
            ],
            "min" : [
                -0.1790531575679779,
                -0.48777273297309875,
                -0.06577455997467041
            ],
            "type" : "VEC3"
        },
        {
            "bufferView" : 19,
            "componentType" : 5126,
            "count" : 2611,
            "type" : "VEC3"
        },
        {
            "bufferView" : 20,
            "componentType" : 5126,
            "count" : 2611,
            "type" : "VEC2"
        },
        {
            "bufferView" : 21,
            "componentType" : 5121,
            "count" : 2611,
            "type" : "VEC4"
        },
        {
            "bufferView" : 22,
            "componentType" : 5126,
            "count" : 2611,
            "type" : "VEC4"
        },
        {
            "bufferView" : 23,
            "componentType" : 5123,
            "count" : 9534,
            "type" : "SCALAR"
        },
        {
            "bufferView" : 24,
            "componentType" : 5126,
            "count" : 411,
            "max" : [
                0.1747157871723175,
                -0.009113679639995098,
                0.05820371210575104
            ],
            "min" : [
                -0.13475362956523895,
                -0.4842432737350464,
                -0.05797110125422478
            ],
            "type" : "VEC3"
        },
        {
            "bufferView" : 25,
            "componentType" : 5126,
            "count" : 411,
            "type" : "VEC3"
        },
        {
            "bufferView" : 26,
            "componentType" : 5126,
            "count" : 411,
            "type" : "VEC2"
        },
        {
            "bufferView" : 27,
            "componentType" : 5121,
            "count" : 411,
            "type" : "VEC4"
        },
        {
            "bufferView" : 28,
            "componentType" : 5126,
            "count" : 411,
            "type" : "VEC4"
        },
        {
            "bufferView" : 29,
            "componentType" : 5123,
            "count" : 1632,
            "type" : "SCALAR"
        },
        {
            "bufferView" : 30,
            "componentType" : 5126,
            "count" : 650,
            "max" : [
                0.28854843974113464,
                -0.0026903459802269936,
                0.015717461705207825
            ],
            "min" : [
                -0.10828893631696701,
                -0.1775679886341095,
                -0.09944754838943481
            ],
            "type" : "VEC3"
        },
        {
            "bufferView" : 31,
            "componentType" : 5126,
            "count" : 650,
            "type" : "VEC3"
        },
        {
            "bufferView" : 32,
            "componentType" : 5126,
            "count" : 650,
            "type" : "VEC2"
        },
        {
            "bufferView" : 33,
            "componentType" : 5121,
            "count" : 650,
            "type" : "VEC4"
        },
        {
            "bufferView" : 34,
            "componentType" : 5126,
            "count" : 650,
            "type" : "VEC4"
        },
        {
            "bufferView" : 35,
            "componentType" : 5123,
            "count" : 2448,
            "type" : "SCALAR"
        },
        {
            "bufferView" : 36,
            "componentType" : 5126,
            "count" : 6,
            "type" : "MAT4"
        }
    ],
    "bufferViews" : [
        {
            "buffer" : 0,
            "byteLength" : 32580,
            "byteOffset" : 0
        },
        {
            "buffer" : 0,
            "byteLength" : 32580,
            "byteOffset" : 32580
        },
        {
            "buffer" : 0,
            "byteLength" : 21720,
            "byteOffset" : 65160
        },
        {
            "buffer" : 0,
            "byteLength" : 10860,
            "byteOffset" : 86880
        },
        {
            "buffer" : 0,
            "byteLength" : 43440,
            "byteOffset" : 97740
        },
        {
            "buffer" : 0,
            "byteLength" : 16572,
            "byteOffset" : 141180
        },
        {
            "buffer" : 0,
            "byteLength" : 1344,
            "byteOffset" : 157752
        },
        {
            "buffer" : 0,
            "byteLength" : 1344,
            "byteOffset" : 159096
        },
        {
            "buffer" : 0,
            "byteLength" : 896,
            "byteOffset" : 160440
        },
        {
            "buffer" : 0,
            "byteLength" : 448,
            "byteOffset" : 161336
        },
        {
            "buffer" : 0,
            "byteLength" : 1792,
            "byteOffset" : 161784
        },
        {
            "buffer" : 0,
            "byteLength" : 552,
            "byteOffset" : 163576
        },
        {
            "buffer" : 0,
            "byteLength" : 2040,
            "byteOffset" : 164128
        },
        {
            "buffer" : 0,
            "byteLength" : 2040,
            "byteOffset" : 166168
        },
        {
            "buffer" : 0,
            "byteLength" : 1360,
            "byteOffset" : 168208
        },
        {
            "buffer" : 0,
            "byteLength" : 680,
            "byteOffset" : 169568
        },
        {
            "buffer" : 0,
            "byteLength" : 2720,
            "byteOffset" : 170248
        },
        {
            "buffer" : 0,
            "byteLength" : 708,
            "byteOffset" : 172968
        },
        {
            "buffer" : 0,
            "byteLength" : 31332,
            "byteOffset" : 173676
        },
        {
            "buffer" : 0,
            "byteLength" : 31332,
            "byteOffset" : 205008
        },
        {
            "buffer" : 0,
            "byteLength" : 20888,
            "byteOffset" : 236340
        },
        {
            "buffer" : 0,
            "byteLength" : 10444,
            "byteOffset" : 257228
        },
        {
            "buffer" : 0,
            "byteLength" : 41776,
            "byteOffset" : 267672
        },
        {
            "buffer" : 0,
            "byteLength" : 19068,
            "byteOffset" : 309448
        },
        {
            "buffer" : 0,
            "byteLength" : 4932,
            "byteOffset" : 328516
        },
        {
            "buffer" : 0,
            "byteLength" : 4932,
            "byteOffset" : 333448
        },
        {
            "buffer" : 0,
            "byteLength" : 3288,
            "byteOffset" : 338380
        },
        {
            "buffer" : 0,
            "byteLength" : 1644,
            "byteOffset" : 341668
        },
        {
            "buffer" : 0,
            "byteLength" : 6576,
            "byteOffset" : 343312
        },
        {
            "buffer" : 0,
            "byteLength" : 3264,
            "byteOffset" : 349888
        },
        {
            "buffer" : 0,
            "byteLength" : 7800,
            "byteOffset" : 353152
        },
        {
            "buffer" : 0,
            "byteLength" : 7800,
            "byteOffset" : 360952
        },
        {
            "buffer" : 0,
            "byteLength" : 5200,
            "byteOffset" : 368752
        },
        {
            "buffer" : 0,
            "byteLength" : 2600,
            "byteOffset" : 373952
        },
        {
            "buffer" : 0,
            "byteLength" : 10400,
            "byteOffset" : 376552
        },
        {
            "buffer" : 0,
            "byteLength" : 4896,
            "byteOffset" : 386952
        },
        {
            "buffer" : 0,
            "byteLength" : 384,
            "byteOffset" : 391848
        }
    ],
    "buffers" : [
        {
            "byteLength" : 392232,
            "uri" : "data:application/octet-stream;base64,"
        }
    ]
}
