{
    "asset" : {
        "generator" : "Khronos glTF Blender I/O v1.4.40",
        "version" : "2.0"
    },
    "scene" : 0,
    "scenes" : [
        {
            "name" : "Scene",
            "nodes" : [
                4,
                5
            ]
        }
    ],
    "nodes" : [
        {
            "name" : "Bolt",
            "translation" : [
                -0.45284685492515564,
                0.27491557598114014,
                4.189104885199413e-08
            ]
        },
        {
            "name" : "Trigger",
            "rotation" : [
                9.081192331450438e-08,
                2.1857702847682958e-07,
                -0.5217857360839844,
                0.8530765771865845
            ],
            "translation" : [
                0.11095728725194931,
                0.9498782753944397,
                2.3578755303788057e-07
            ]
        },
        {
            "name" : "Mag",
            "rotation" : [
                2.7785310408035e-07,
                3.7526476148741494e-07,
                -0.703427255153656,
                0.7107672691345215
            ],
            "translation" : [
                1.0768499374389648,
                0.43780717253685,
                2.5462912844886887e-07
            ]
        },
        {
            "children" : [
                0,
                1,
                2
            ],
            "name" : "Mac10"
        },
        {
            "mesh" : 0,
            "name" : "Mac10",
            "skin" : 0
        },
        {
            "children" : [
                3
            ],
            "name" : "Mac10-Armature",
            "rotation" : [
                0,
                0,
                -0.7166916728019714,
                0.6973901391029358
            ],
            "scale" : [
                0.47557562589645386,
                0.47557562589645386,
                0.47557562589645386
            ],
            "translation" : [
                -0.387899249792099,
                1.0449907779693604,
                0.7844372987747192
            ]
        }
    ],
    "materials" : [
        {
            "doubleSided" : true,
            "name" : "Gray",
            "pbrMetallicRoughness" : {
                "baseColorFactor" : [
                    0.0236507635563612,
                    0.0236507635563612,
                    0.0236507635563612,
                    1
                ],
                "metallicFactor" : 0,
                "roughnessFactor" : 0.5
            }
        },
        {
            "doubleSided" : true,
            "name" : "White",
            "pbrMetallicRoughness" : {
                "baseColorFactor" : [
                    0.800000011920929,
                    0.800000011920929,
                    0.800000011920929,
                    1
                ],
                "metallicFactor" : 0,
                "roughnessFactor" : 0.5
            }
        }
    ],
    "meshes" : [
        {
            "name" : "Cylinder.004",
            "primitives" : [
                {
                    "attributes" : {
                        "POSITION" : 0,
                        "NORMAL" : 1,
                        "TEXCOORD_0" : 2,
                        "JOINTS_0" : 3,
                        "WEIGHTS_0" : 4
                    },
                    "indices" : 5,
                    "material" : 0
                },
                {
                    "attributes" : {
                        "POSITION" : 6,
                        "NORMAL" : 7,
                        "TEXCOORD_0" : 8,
                        "JOINTS_0" : 9,
                        "WEIGHTS_0" : 10
                    },
                    "indices" : 11,
                    "material" : 1
                }
            ]
        }
    ],
    "skins" : [
        {
            "inverseBindMatrices" : 12,
            "joints" : [
                3,
                0,
                1,
                2
            ],
            "name" : "Mac10-Armature"
        }
    ],
    "accessors" : [
        {
            "bufferView" : 0,
            "componentType" : 5126,
            "count" : 5418,
            "max" : [
                1.0468945503234863,
                1.3893699645996094,
                0.9964727759361267
            ],
            "min" : [
                -2.218137741088867,
                -0.04966573044657707,
                0.6011326909065247
            ],
            "type" : "VEC3"
        },
        {
            "bufferView" : 1,
            "componentType" : 5126,
            "count" : 5418,
            "type" : "VEC3"
        },
        {
            "bufferView" : 2,
            "componentType" : 5126,
            "count" : 5418,
            "type" : "VEC2"
        },
        {
            "bufferView" : 3,
            "componentType" : 5121,
            "count" : 5418,
            "type" : "VEC4"
        },
        {
            "bufferView" : 4,
            "componentType" : 5126,
            "count" : 5418,
            "type" : "VEC4"
        },
        {
            "bufferView" : 5,
            "componentType" : 5123,
            "count" : 21402,
            "type" : "SCALAR"
        },
        {
            "bufferView" : 6,
            "componentType" : 5126,
            "count" : 1777,
            "max" : [
                0.7285308241844177,
                1.5128443241119385,
                0.9604001641273499
            ],
            "min" : [
                -0.806098222732544,
                0.7988684177398682,
                0.6211591958999634
            ],
            "type" : "VEC3"
        },
        {
            "bufferView" : 7,
            "componentType" : 5126,
            "count" : 1777,
            "type" : "VEC3"
        },
        {
            "bufferView" : 8,
            "componentType" : 5126,
            "count" : 1777,
            "type" : "VEC2"
        },
        {
            "bufferView" : 9,
            "componentType" : 5121,
            "count" : 1777,
            "type" : "VEC4"
        },
        {
            "bufferView" : 10,
            "componentType" : 5126,
            "count" : 1777,
            "type" : "VEC4"
        },
        {
            "bufferView" : 11,
            "componentType" : 5123,
            "count" : 5556,
            "type" : "SCALAR"
        },
        {
            "bufferView" : 12,
            "componentType" : 5126,
            "count" : 4,
            "type" : "MAT4"
        }
    ],
    "bufferViews" : [
        {
            "buffer" : 0,
            "byteLength" : 65016,
            "byteOffset" : 0
        },
        {
            "buffer" : 0,
            "byteLength" : 65016,
            "byteOffset" : 65016
        },
        {
            "buffer" : 0,
            "byteLength" : 43344,
            "byteOffset" : 130032
        },
        {
            "buffer" : 0,
            "byteLength" : 21672,
            "byteOffset" : 173376
        },
        {
            "buffer" : 0,
            "byteLength" : 86688,
            "byteOffset" : 195048
        },
        {
            "buffer" : 0,
            "byteLength" : 42804,
            "byteOffset" : 281736
        },
        {
            "buffer" : 0,
            "byteLength" : 21324,
            "byteOffset" : 324540
        },
        {
            "buffer" : 0,
            "byteLength" : 21324,
            "byteOffset" : 345864
        },
        {
            "buffer" : 0,
            "byteLength" : 14216,
            "byteOffset" : 367188
        },
        {
            "buffer" : 0,
            "byteLength" : 7108,
            "byteOffset" : 381404
        },
        {
            "buffer" : 0,
            "byteLength" : 28432,
            "byteOffset" : 388512
        },
        {
            "buffer" : 0,
            "byteLength" : 11112,
            "byteOffset" : 416944
        },
        {
            "buffer" : 0,
            "byteLength" : 256,
            "byteOffset" : 428056
        }
    ],
    "buffers" : [
        {
            "byteLength" : 428312,
            "uri" : "data:application/octet-stream;base64,"
        }
    ]
}
